<svg preserveAspectRatio="none" overflow="visible" style="display: block;" width="20" height="18" viewBox="0 0 20 18" fill="none" xmlns="http://www.w3.org/2000/svg">
<path id="Vector" d="M5.713 11.713C5.90433 11.521 6 11.2833 6 11V7C6 6.71667 5.904 6.47934 5.712 6.288C5.52 6.09667 5.28267 6.00067 5 6C4.71733 5.99934 4.48 6.09534 4.288 6.288C4.096 6.48067 4 6.718 4 7V11C4 11.2833 4.096 11.521 4.288 11.713C4.48 11.905 4.71733 12.0007 5 12C5.28267 11.9993 5.52033 11.9033 5.713 11.712M10.713 11.712C10.9043 11.5213 11 11.284 11 11V7C11 6.71667 10.904 6.47934 10.712 6.288C10.52 6.09667 10.2827 6.00067 10 6C9.71733 5.99934 9.48 6.09534 9.288 6.288C9.096 6.48067 9 6.718 9 7V11C9 11.2833 9.096 11.521 9.288 11.713C9.48 11.905 9.71733 12.0007 10 12C10.2827 11.9993 10.5203 11.9033 10.713 11.712ZM15.713 11.712C15.9043 11.5213 16 11.284 16 11V7C16 6.71667 15.904 6.47934 15.712 6.288C15.52 6.09667 15.2827 6.00067 15 6C14.7173 5.99934 14.48 6.09534 14.288 6.288C14.096 6.48067 14 6.718 14 7V11C14 11.2833 14.096 11.521 14.288 11.713C14.48 11.905 14.7173 12.0007 15 12C15.2827 11.9993 15.5203 11.9033 15.713 11.712ZM2 14H18V4H2V14ZM2 16C1.45 16 0.979333 15.8043 0.588 15.413C0.196667 15.0217 0.000666667 14.5507 0 14V4C0 3.45 0.196 2.97934 0.588 2.588C0.98 2.19667 1.45067 2.00067 2 2H3V1C3 0.71667 3.096 0.479337 3.288 0.288004C3.48 0.0966702 3.71733 0.000670115 4 3.44827e-06C4.28267 -0.000663218 4.52033 0.0953369 4.713 0.288004C4.90567 0.48067 5.00133 0.718003 5 1V2H9V1C9 0.71667 9.096 0.479337 9.288 0.288004C9.48 0.0966702 9.71733 0.000670115 10 3.44827e-06C10.2827 -0.000663218 10.5203 0.0953369 10.713 0.288004C10.9057 0.48067 11.0013 0.718003 11 1V2H15V1C15 0.71667 15.096 0.479337 15.288 0.288004C15.48 0.0966702 15.7173 0.000670115 16 3.44827e-06C16.2827 -0.000663218 16.5203 0.0953369 16.713 0.288004C16.9057 0.48067 17.0013 0.718003 17 1V2H18C18.55 2 19.021 2.196 19.413 2.588C19.805 2.98 20.0007 3.45067 20 4V14C20 14.55 19.8043 15.021 19.413 15.413C19.0217 15.805 18.5507 16.0007 18 16H17V17C17 17.2833 16.904 17.521 16.712 17.713C16.52 17.905 16.2827 18.0007 16 18C15.7173 17.9993 15.48 17.9033 15.288 17.712C15.096 17.5207 15 17.2833 15 17V16H11V17C11 17.2833 10.904 17.521 10.712 17.713C10.52 17.905 10.2827 18.0007 10 18C9.71733 17.9993 9.48 17.9033 9.288 17.712C9.096 17.5207 9 17.2833 9 17V16H5V17C5 17.2833 4.904 17.521 4.712 17.713C4.52 17.905 4.28267 18.0007 4 18C3.71733 17.9993 3.48 17.9033 3.288 17.712C3.096 17.5207 3 17.2833 3 17V16H2Z" fill="#8C8C8C"/>
</svg>
