<svg width="12" height="12" viewBox="0 0 12 12" fill="none" xmlns="http://www.w3.org/2000/svg">
<g id="RevokeICO">
<path id="Frame" fill-rule="evenodd" clip-rule="evenodd" d="M0.5 1.7C0.5 1.03726 1.03726 0.5 1.7 0.5H10.3C10.9627 0.5 11.5 1.03726 11.5 1.7V10.3C11.5 10.9627 10.9627 11.5 10.3 11.5H1.7C1.03726 11.5 0.5 10.9627 0.5 10.3V1.7ZM1.7 1.5C1.58954 1.5 1.5 1.58954 1.5 1.7V10.3C1.5 10.4105 1.58954 10.5 1.7 10.5H10.3C10.4105 10.5 10.5 10.4105 10.5 10.3V1.7C10.5 1.58954 10.4105 1.5 10.3 1.5H1.7Z" fill="#8C8C8C"/>
<path id="Cross" d="M3.99 3.28L6 5.29L8.01 3.28L8.72 3.99L6.71 6L8.72 8.01L8.01 8.72L6 6.71L3.99 8.72L3.28 8.01L5.29 6L3.28 3.99L3.99 3.28Z" fill="#8C8C8C"/>
</g>
</svg>
